<svg width="27" height="29" viewBox="0 0 27 29" fill="none" xmlns="http://www.w3.org/2000/svg">
<path d="M19.2 1.82007H7.06C3.16087 1.82007 0 4.98075 0 8.87988V21.02C0 24.9191 3.16087 28.0798 7.06 28.0798H19.2C23.0991 28.0798 26.26 24.9191 26.26 21.02V8.87988C26.26 4.98075 23.0991 1.82007 19.2 1.82007Z" fill="url(#paint0_linear_124_605)"/>
<path d="M12.8728 21.2245C11.6605 21.2245 10.6502 21.0449 9.842 20.6857C9.0338 20.3115 8.42765 19.7877 8.02355 19.1142C7.61945 18.4257 7.4174 17.61 7.4174 16.6671C7.4174 16.4576 7.42488 16.2556 7.43985 16.061C7.46978 15.8515 7.51468 15.6494 7.57455 15.4548H6.4745V13.7935H8.42765C8.56235 13.6289 8.71202 13.4792 8.87665 13.3445C9.04128 13.1949 9.2134 13.0527 9.393 12.918C9.58757 12.7833 9.78962 12.6561 9.99915 12.5363C10.2087 12.4016 10.4257 12.2819 10.6502 12.1771H6.4745V10.5158H13.9728C14.1674 10.3362 14.3096 10.1342 14.3994 9.9097C14.5041 9.67023 14.5565 9.40083 14.5565 9.1015C14.5565 8.77223 14.4742 8.49535 14.3096 8.27085C14.1599 8.04635 13.9354 7.87423 13.6361 7.7545C13.3367 7.63477 12.9626 7.5749 12.5136 7.5749C12.1095 7.5749 11.7054 7.61232 11.3013 7.68715C10.9121 7.76198 10.5005 7.86675 10.0665 8.00145C9.63247 8.13615 9.1685 8.30827 8.6746 8.5178L7.66435 5.8687C8.44262 5.52447 9.25082 5.25507 10.089 5.0605C10.9421 4.85097 11.8401 4.7462 12.783 4.7462C13.8306 4.7462 14.7286 4.91832 15.477 5.26255C16.2403 5.59182 16.8314 6.08572 17.2505 6.74425C17.6696 7.40278 17.8791 8.21098 17.8791 9.16885C17.8791 9.40832 17.8641 9.6403 17.8342 9.8648C17.8043 10.0893 17.7594 10.3063 17.6995 10.5158H18.8445V12.1771H16.7566C16.592 12.3567 16.4049 12.5289 16.1954 12.6935C16.0008 12.8432 15.7913 12.9853 15.5668 13.12C15.3572 13.2398 15.1327 13.3595 14.8933 13.4792C14.6688 13.584 14.4368 13.6888 14.1973 13.7935H18.8445V15.4548H11.1666C11.0169 15.6195 10.9046 15.8066 10.8298 16.0161C10.7699 16.2107 10.74 16.4277 10.74 16.6671C10.74 17.0263 10.8223 17.3406 10.987 17.61C11.1666 17.8645 11.4285 18.0665 11.7727 18.2162C12.1319 18.3509 12.5659 18.4182 13.0748 18.4182C13.883 18.4182 14.6762 18.3284 15.4545 18.1488C16.2328 17.9543 17.011 17.6998 17.7893 17.3855V20.2142C17.1457 20.5285 16.4049 20.7755 15.5668 20.9551C14.7286 21.1347 13.8306 21.2245 12.8728 21.2245Z" fill="#F2F2F2"/>
<defs>
<linearGradient id="paint0_linear_124_605" x1="2.07" y1="3.88005" x2="24.1898" y2="26.01" gradientUnits="userSpaceOnUse">
<stop stop-color="#FF8F00"/>
<stop offset="0.99" stop-color="#F89110"/>
</linearGradient>
</defs>
</svg>
