<svg width="27" height="27" viewBox="0 0 27 27" fill="none" xmlns="http://www.w3.org/2000/svg">
<path d="M19.2 0H7.06C3.16087 0 0 3.16093 0 7.06006V19.2C0 23.0991 3.16087 26.26 7.06 26.26H19.2C23.0991 26.26 26.26 23.0991 26.26 19.2V7.06006C26.26 3.16093 23.0991 0 19.2 0Z" fill="url(#paint0_linear_124_604)"/>
<path d="M14.3141 4.29534V6.77576H13.0024V4.29534H14.3141ZM14.1543 18.0259V20.2877H12.8426V18.0259H14.1543ZM15.0792 15.268C15.0792 14.9485 15.0204 14.6767 14.9026 14.4525C14.7905 14.2282 14.6056 14.0292 14.3477 13.8555C14.0955 13.6817 13.7535 13.5135 13.3219 13.351C12.5932 13.0707 11.9514 12.7736 11.3964 12.4597C10.8471 12.1402 10.4183 11.745 10.11 11.2742C9.80167 10.7977 9.64752 10.1951 9.64752 9.46639C9.64752 8.77131 9.81288 8.16872 10.1436 7.65862C10.4743 7.14853 10.9312 6.75614 11.5141 6.48148C12.1027 6.2012 12.7866 6.06106 13.5657 6.06106C14.1599 6.06106 14.698 6.15075 15.1801 6.33013C15.6622 6.5039 16.077 6.76175 16.4245 7.10368C16.7721 7.44001 17.0383 7.85201 17.2233 8.33969C17.4083 8.82736 17.5008 9.38511 17.5008 10.0129H15.0876C15.0876 9.67659 15.0512 9.3795 14.9783 9.12165C14.9054 8.8638 14.7989 8.64799 14.6588 8.47422C14.5243 8.30045 14.3617 8.17152 14.1711 8.08744C13.9805 7.99775 13.7703 7.95291 13.5405 7.95291C13.1986 7.95291 12.9183 8.02018 12.6997 8.15471C12.4811 8.28924 12.3213 8.47142 12.2204 8.70124C12.1251 8.92546 12.0775 9.18331 12.0775 9.4748C12.0775 9.76067 12.1279 10.0101 12.2288 10.2231C12.3353 10.4361 12.5175 10.6323 12.7754 10.8117C13.0332 10.9855 13.3864 11.1648 13.8348 11.3498C14.5635 11.6301 15.2025 11.9328 15.7519 12.2579C16.3012 12.583 16.73 12.981 17.0383 13.4519C17.3466 13.9227 17.5008 14.5225 17.5008 15.2512C17.5008 15.9743 17.3326 16.5909 16.9963 17.101C16.66 17.6055 16.1891 17.9923 15.5837 18.2614C14.9783 18.5248 14.2776 18.6566 13.4817 18.6566C12.966 18.6566 12.4531 18.5893 11.943 18.4548C11.4329 18.3146 10.9704 18.0904 10.5556 17.7821C10.1408 17.4738 9.81008 17.0646 9.56344 16.5545C9.3168 16.0388 9.19348 15.4054 9.19348 14.6542H11.615C11.615 15.0634 11.6683 15.4054 11.7748 15.68C11.8813 15.9491 12.0214 16.1649 12.1952 16.3275C12.3746 16.4844 12.5764 16.5965 12.8006 16.6638C13.0248 16.7311 13.2518 16.7647 13.4817 16.7647C13.8404 16.7647 14.1347 16.7002 14.3645 16.5713C14.6 16.4424 14.7765 16.2658 14.8942 16.0416C15.0176 15.8118 15.0792 15.5539 15.0792 15.268Z" fill="#F2F2F2"/>
<defs>
<linearGradient id="paint0_linear_124_604" x1="2.07" y1="2.07" x2="24.19" y2="24.19" gradientUnits="userSpaceOnUse">
<stop stop-color="#166C9D"/>
<stop offset="1" stop-color="#007DB1"/>
</linearGradient>
</defs>
</svg>
