<svg width="27" height="27" viewBox="0 0 27 27" fill="none" xmlns="http://www.w3.org/2000/svg">
<path d="M19.2 0H7.06C3.16087 0 0 3.16093 0 7.06006V19.2C0 23.0991 3.16087 26.26 7.06 26.26H19.2C23.0991 26.26 26.26 23.0991 26.26 19.2V7.06006C26.26 3.16093 23.0991 0 19.2 0Z" fill="url(#paint0_linear_124_603)"/>
<path d="M21.681 6.09009H4.00098V20.55H21.681V6.09009Z" fill="white"/>
<path d="M1.00042 12.9102C1.02417 9.7432 2.29894 6.71394 4.54681 4.48293C6.79467 2.25192 9.83335 0.999929 13.0004 1.00002C14.5724 0.997291 16.1294 1.30684 17.581 1.91017C19.0325 2.51351 20.3501 3.39899 21.457 4.51515C22.5638 5.63132 23.4381 6.95607 24.0292 8.41262C24.6204 9.86916 24.9167 11.4282 24.9008 13C24.9103 14.5743 24.6056 16.1347 24.0048 17.5899C23.404 19.045 22.5187 20.3656 21.4013 21.4746C20.2839 22.5836 18.9566 23.459 17.497 24.0488C16.0374 24.6387 14.475 24.9315 12.9008 24.9102C11.3296 24.9102 9.77399 24.5989 8.32366 23.9946C6.87333 23.3904 5.55695 22.5053 4.45062 21.3897C3.34428 20.274 2.46949 18.95 1.87737 17.4946C1.28526 16.0393 0.987217 14.4813 1.00042 12.9102ZM21.2206 12.4302C21.1954 12.2825 21.1374 12.1422 21.0507 12.02C20.2207 10.59 19.3807 9.18025 18.5707 7.74025C18.4712 7.52671 18.3083 7.34902 18.1044 7.23097C17.9005 7.11293 17.6653 7.06009 17.4306 7.0801C14.4806 7.0801 11.5305 7.0801 8.5805 7.0801C8.36543 7.06368 8.15031 7.11094 7.96185 7.21584C7.77338 7.32074 7.61982 7.4785 7.52044 7.66994C6.67044 9.07994 5.79083 10.4704 4.92083 11.8804C4.55083 12.4804 4.5705 12.6602 5.0805 13.1602L11.3808 19.3003C11.7308 19.6503 12.0709 20.0003 12.4409 20.3003C12.5037 20.3708 12.5803 20.4272 12.6664 20.4658C12.7526 20.5044 12.8464 20.5244 12.9409 20.5244C13.0353 20.5244 13.1286 20.5044 13.2148 20.4658C13.3009 20.4272 13.378 20.3708 13.4409 20.3003L14.3705 19.3804L20.8608 13.0503C20.9618 12.9789 21.0462 12.8863 21.1083 12.7793C21.1705 12.6723 21.2088 12.5534 21.2206 12.4302Z" fill="url(#paint1_linear_124_603)"/>
<path d="M12.9803 9.16016C14.0403 9.16016 15.1007 9.16016 16.1507 9.16016C16.5407 9.16016 16.6507 9.29992 16.6507 9.66992C16.6507 10.5799 16.6506 10.5801 15.7806 10.5801C15.2706 10.5801 14.7806 10.5801 14.2606 10.5801C14.0106 10.5801 13.8805 10.6602 13.8905 10.9302C13.9005 11.2002 13.8908 11.4002 14.1908 11.4502C14.7693 11.4928 15.3438 11.5764 15.9105 11.7002L16.4105 11.8403C16.5889 11.8781 16.7565 11.9557 16.9002 12.0679C17.044 12.1801 17.1601 12.3239 17.2401 12.4878C17.3201 12.6517 17.3621 12.8313 17.3622 13.0137C17.3622 13.196 17.3205 13.3761 17.2406 13.54C17.1807 13.6727 17.0907 13.7899 16.9779 13.8818C16.8651 13.9738 16.7327 14.0383 16.5907 14.0703C15.8809 14.3251 15.1347 14.4633 14.3807 14.48C14.0007 14.48 13.8707 14.63 13.8807 15C13.8907 15.37 13.8807 15.9999 13.8807 16.4399C13.8807 16.7099 13.7706 16.8401 13.4906 16.8301H13.4105C12.0205 16.8301 12.0204 16.8302 12.0204 15.4902C12.0204 14.5802 12.0207 14.5902 11.1307 14.4902C10.4447 14.4316 9.77099 14.2731 9.13072 14.02C8.96016 13.9751 8.81229 13.8686 8.71617 13.7207C8.62004 13.5728 8.58252 13.3943 8.6107 13.2202C8.62068 13.0771 8.62068 12.9332 8.6107 12.79C8.58252 12.6159 8.62004 12.4374 8.71617 12.2896C8.81229 12.1417 8.96016 12.0352 9.13072 11.9902C9.77116 11.7395 10.4451 11.5845 11.1307 11.5303L11.6004 11.48C11.9804 11.48 11.9706 11.2102 11.9706 10.9302C11.9706 10.6502 11.7704 10.6001 11.5404 10.6001C10.9004 10.6001 10.2605 10.6001 9.62046 10.6001C9.34046 10.6001 9.21054 10.5002 9.20054 10.2002C9.15054 9.2002 9.14048 9.2002 10.1405 9.2002L12.9803 9.16016ZM13.0506 13.77C14.2832 13.7842 15.5095 13.5949 16.6805 13.21C16.8105 13.16 17.0003 13.1302 16.9803 12.9502C16.9603 12.7702 16.8005 12.78 16.6805 12.73C15.8725 12.4568 15.0319 12.2923 14.1805 12.2402C13.9405 12.2402 13.9005 12.3701 13.8905 12.5601C13.8905 13.2301 13.8307 13.23 13.1507 13.25C12.9707 13.25 12.8007 13.25 12.6307 13.25C12.2107 13.25 11.9606 13.1201 12.0306 12.6401C12.0306 12.4001 12.0305 12.2002 11.6805 12.2402C10.9618 12.2864 10.2504 12.4137 9.5604 12.6201C9.3304 12.7001 8.93054 12.7002 8.95054 12.9902C8.97054 13.2802 9.34042 13.2801 9.58042 13.3501C10.715 13.6345 11.881 13.7755 13.0506 13.77Z" fill="#009393"/>
<defs>
<linearGradient id="paint0_linear_124_603" x1="2.06" y1="2.06" x2="24.19" y2="24.18" gradientUnits="userSpaceOnUse">
<stop stop-color="#009393"/>
<stop offset="1" stop-color="#009393"/>
</linearGradient>
<linearGradient id="paint1_linear_124_603" x1="1.00042" y1="12.9301" x2="24.8708" y2="12.9301" gradientUnits="userSpaceOnUse">
<stop stop-color="#009393"/>
<stop offset="1" stop-color="#009393"/>
</linearGradient>
</defs>
</svg>
